<?xml version="1.0" encoding="UTF-8" standalone="no"?>
<!DOCTYPE svg PUBLIC "-//W3C//DTD SVG 1.1//EN" "http://www.w3.org/Graphics/SVG/1.1/DTD/svg11.dtd">
<svg width="100%" height="100%" viewBox="0 0 198 108" version="1.1" xmlns="http://www.w3.org/2000/svg" xmlns:xlink="http://www.w3.org/1999/xlink" xml:space="preserve" xmlns:serif="http://www.serif.com/" style="fill-rule:evenodd;clip-rule:evenodd;stroke-linejoin:round;stroke-miterlimit:2;">
    <g>
        <g>
            <path d="M147.5,106.2C147.2,106.2 147,106 147,105.7C147,105.4 147.2,105.2 147.5,105.2C153,105.2 157.4,100.8 157.4,95.3L157.4,12.7C157.4,7.2 153,2.8 147.5,2.8L74.7,2.8C74.4,2.8 74.2,2.6 74.2,2.3C74.2,2 74.4,1.8 74.7,1.8L147.5,1.8C153.5,1.8 158.4,6.7 158.4,12.7L158.4,95.3C158.4,101.3 153.5,106.2 147.5,106.2Z" style="fill:rgb(26,23,27);fill-rule:nonzero;"/>
            <path d="M40.2,106.2C34.2,106.2 29.3,101.3 29.3,95.3L29.3,12.7C29.3,6.7 34.2,1.8 40.2,1.8L69.5,1.8C69.8,1.8 70,2 70,2.3C70,2.6 69.8,2.8 69.5,2.8L40.2,2.8C34.7,2.8 30.3,7.2 30.3,12.7L30.3,95.3C30.3,100.8 34.7,105.2 40.2,105.2C40.5,105.2 40.7,105.4 40.7,105.7C40.7,106 40.5,106.2 40.2,106.2Z" style="fill:rgb(26,23,27);fill-rule:nonzero;"/>
            <path d="M105.1,106.2L58.8,106.2C58.5,106.2 58.3,106 58.3,105.7C58.3,105.4 58.5,105.2 58.8,105.2L105.1,105.2C105.4,105.2 105.6,105.4 105.6,105.7C105.6,106 105.3,106.2 105.1,106.2Z" style="fill:rgb(26,23,27);fill-rule:nonzero;"/>
            <path d="M55.3,106.2L50.7,106.2C50.4,106.2 50.2,106 50.2,105.7C50.2,105.4 50.4,105.2 50.7,105.2L55.3,105.2C55.6,105.2 55.8,105.4 55.8,105.7C55.8,106 55.6,106.2 55.3,106.2Z" style="fill:rgb(26,23,27);fill-rule:nonzero;"/>
            <path d="M144.3,106.2L139.7,106.2C139.4,106.2 139.2,106 139.2,105.7C139.2,105.4 139.4,105.2 139.7,105.2L144.3,105.2C144.6,105.2 144.8,105.4 144.8,105.7C144.8,106 144.6,106.2 144.3,106.2Z" style="fill:rgb(26,23,27);fill-rule:nonzero;"/>
        </g>
        <g transform="matrix(3.03659,0,0,3.03659,-129.831,-41.427)">
            <g transform="matrix(12,0,0,12,55.6859,35.3453)">
                <path d="M0.258,-0L0.258,-0.586L0.042,-0.586L0.042,-0.656L0.558,-0.656L0.558,-0.586L0.342,-0.586L0.342,-0L0.258,-0Z" style="fill-rule:nonzero;"/>
            </g>
            <g transform="matrix(12,0,0,12,62.8859,35.3453)">
                <path d="M0.095,-0L0.095,-0.071L0.258,-0.071L0.258,-0.586L0.095,-0.586L0.095,-0.656L0.505,-0.656L0.505,-0.586L0.342,-0.586L0.342,-0.071L0.505,-0.071L0.505,-0L0.095,-0Z" style="fill-rule:nonzero;"/>
            </g>
            <g transform="matrix(12,0,0,12,70.0859,35.3453)">
                <path d="M0.065,-0L0.065,-0.05L0.431,-0.587L0.097,-0.587L0.097,-0.657L0.534,-0.657L0.534,-0.607L0.167,-0.071L0.539,-0.071L0.539,-0L0.065,-0Z" style="fill-rule:nonzero;"/>
            </g>
            <g transform="matrix(12,0,0,12,77.2859,35.3453)">
                <path d="M0.3,0.012C0.263,0.012 0.229,0.004 0.198,-0.012C0.167,-0.027 0.141,-0.05 0.119,-0.079C0.096,-0.108 0.079,-0.144 0.067,-0.187C0.054,-0.229 0.048,-0.277 0.048,-0.331C0.048,-0.384 0.054,-0.431 0.067,-0.473C0.079,-0.515 0.096,-0.55 0.119,-0.579C0.141,-0.608 0.167,-0.63 0.198,-0.645C0.229,-0.66 0.263,-0.668 0.3,-0.668C0.337,-0.668 0.371,-0.66 0.402,-0.645C0.433,-0.63 0.459,-0.608 0.482,-0.579C0.504,-0.55 0.521,-0.515 0.534,-0.473C0.546,-0.431 0.552,-0.384 0.552,-0.331C0.552,-0.277 0.546,-0.229 0.534,-0.187C0.521,-0.144 0.504,-0.108 0.482,-0.079C0.459,-0.05 0.433,-0.027 0.402,-0.012C0.371,0.004 0.337,0.012 0.3,0.012ZM0.3,-0.061C0.325,-0.061 0.347,-0.067 0.368,-0.08C0.389,-0.092 0.406,-0.11 0.421,-0.133C0.435,-0.156 0.446,-0.185 0.454,-0.218C0.462,-0.251 0.466,-0.289 0.466,-0.331C0.466,-0.372 0.462,-0.409 0.454,-0.442C0.446,-0.475 0.435,-0.502 0.421,-0.525C0.406,-0.548 0.389,-0.565 0.368,-0.577C0.347,-0.589 0.325,-0.595 0.3,-0.595C0.275,-0.595 0.252,-0.589 0.232,-0.577C0.211,-0.565 0.194,-0.548 0.18,-0.525C0.165,-0.502 0.154,-0.475 0.146,-0.442C0.138,-0.409 0.134,-0.372 0.134,-0.331C0.134,-0.289 0.138,-0.251 0.146,-0.218C0.154,-0.185 0.165,-0.156 0.18,-0.133C0.194,-0.11 0.211,-0.092 0.232,-0.08C0.252,-0.067 0.275,-0.061 0.3,-0.061Z" style="fill-rule:nonzero;"/>
            </g>
            <g transform="matrix(12,0,0,12,84.4859,35.3453)">
                <path d="M0.351,0.012C0.31,0.012 0.273,0.004 0.238,-0.011C0.203,-0.026 0.173,-0.049 0.148,-0.078C0.122,-0.107 0.102,-0.142 0.087,-0.185C0.072,-0.227 0.065,-0.275 0.065,-0.328C0.065,-0.381 0.072,-0.428 0.087,-0.47C0.102,-0.512 0.122,-0.548 0.148,-0.577C0.174,-0.606 0.205,-0.629 0.241,-0.645C0.277,-0.66 0.316,-0.668 0.359,-0.668C0.398,-0.668 0.433,-0.66 0.464,-0.644C0.494,-0.628 0.519,-0.609 0.538,-0.588L0.491,-0.535C0.474,-0.553 0.454,-0.568 0.433,-0.579C0.412,-0.59 0.387,-0.595 0.359,-0.595C0.328,-0.595 0.299,-0.589 0.274,-0.577C0.248,-0.564 0.226,-0.547 0.208,-0.524C0.19,-0.501 0.176,-0.473 0.166,-0.44C0.156,-0.407 0.151,-0.371 0.151,-0.33C0.151,-0.289 0.156,-0.252 0.166,-0.219C0.176,-0.186 0.19,-0.157 0.208,-0.134C0.226,-0.111 0.248,-0.093 0.274,-0.08C0.299,-0.067 0.328,-0.061 0.359,-0.061C0.389,-0.061 0.416,-0.067 0.44,-0.08C0.463,-0.093 0.486,-0.111 0.507,-0.134L0.554,-0.083C0.528,-0.053 0.499,-0.03 0.466,-0.013C0.433,0.004 0.395,0.012 0.351,0.012Z" style="fill-rule:nonzero;"/>
            </g>
        </g>
    </g>
</svg>
